<svg width="1440" height="141" viewBox="0 0 1440 141" fill="none" xmlns="http://www.w3.org/2000/svg">
<path fill-rule="evenodd" clip-rule="evenodd" d="M0 18.5611L48 15.3177C96 12.4797 192 6.80369 288 15.3177C384 24.2371 480 47.7518 576 62.3472C672 76.9426 768 82.6185 864 65.1852C960 47.7518 1056 6.80369 1152 0.722289C1248 -4.95369 1344 24.2371 1392 38.8324L1440 53.4278V141H1392C1344 141 1248 141 1152 141C1056 141 960 141 864 141C768 141 672 141 576 141C480 141 384 141 288 141C192 141 96 141 48 141H0V18.5611Z" fill="#F5F5F5"/>
</svg>
