<svg width="1440" height="99" viewBox="0 0 1440 99" fill="none" xmlns="http://www.w3.org/2000/svg">
<path fill-rule="evenodd" clip-rule="evenodd" d="M0 49.8999L18 44.3554C37.2 38.811 74.4 27.7222 110.4 27.7222C147.6 27.7222 184.8 38.811 222 63.761C258 88.7109 270.8 96.9195 308 88.6028C345.2 80.2862 405.6 55.4443 442.8 52.6721C480 49.8999 517.2 52.3535 554.4 71.759C590.4 91.1646 666.8 93.9368 704 71.759C741.2 49.5813 738 49.8999 775.2 33.2666C812.4 16.6333 849.6 16.6333 885.6 36.0388C922.8 55.4443 928.8 66.2146 966 71.759C1003.2 77.3035 1056.5 71.759 1107.6 58.2165C1144.8 38.811 1182 27.7222 1218 38.811C1255.2 49.8999 1292.4 83.1665 1329.6 94.2553C1365.6 105.344 1402.8 94.2553 1422 88.7109L1440 83.1665V0H1422C1402.8 0 1365.6 0 1329.6 0C1292.4 0 1255.2 0 1218 0C1182 0 1144.8 0 1107.6 0C1070.4 0 1034.4 0 997.2 0C960 0 922.8 0 885.6 0C849.6 0 812.4 0 775.2 0C738 0 702 0 664.8 0C627.6 0 590.4 0 554.4 0C517.2 0 480 0 442.8 0C405.6 0 369.6 0 332.4 0C295.2 0 258 0 222 0C184.8 0 147.6 0 110.4 0C74.4 0 37.2 0 18 0H0V49.8999Z" fill="#76951F"/>
</svg>
