<svg width="1440" height="140" viewBox="0 0 1440 140" fill="none" xmlns="http://www.w3.org/2000/svg">
<path fill-rule="evenodd" clip-rule="evenodd" d="M0 0L20.4 20.7407C39.6 41.4815 80.4 82.963 120 82.963C159.6 82.963 200.4 41.4815 240 28.5185C279.6 15.5556 320.4 31.1111 360 46.6667C399.6 62.2222 440.4 77.7778 480 90.7407C519.6 103.704 560.4 114.074 600 103.704C639.6 93.3333 680.4 62.2222 720 44.0741C759.6 25.9259 800.4 20.7407 840 25.9259C879.6 31.1111 920.4 46.6667 960 62.2222C999.6 77.7778 1040.4 93.3333 1080 95.9259C1119.6 98.5185 1160.4 88.1481 1200 77.7778C1239.6 67.4074 1280.4 57.037 1320 51.8519C1359.6 46.6667 1400.4 46.6667 1419.6 46.6667H1440V140H1419.6C1400.4 140 1359.6 140 1320 140C1280.4 140 1239.6 140 1200 140C1160.4 140 1119.6 140 1080 140C1040.4 140 999.6 140 960 140C920.4 140 879.6 140 840 140C800.4 140 759.6 140 720 140C680.4 140 639.6 140 600 140C560.4 140 519.6 140 480 140C440.4 140 399.6 140 360 140C320.4 140 279.6 140 240 140C200.4 140 159.6 140 120 140C80.4 140 39.6 140 20.4 140H0V0Z" fill="#76951F"/>
</svg>
