<svg width="1440" height="146" viewBox="0 0 1440 146" fill="none" xmlns="http://www.w3.org/2000/svg">
<path fill-rule="evenodd" clip-rule="evenodd" d="M0 45.6606L18 42.8734C37.2 40.0862 74.4 34.5118 110.4 40.0862C147.6 45.6606 184.8 62.3838 222 76.3199C258 90.2559 295.2 101.405 332.4 87.4687C369.6 73.5327 405.6 34.5118 442.8 15.0013C480 -4.50909 517.2 -4.50909 554.4 12.2141C590.4 28.9374 627.6 62.3838 664.8 87.4687C702 112.554 738 129.277 775.2 129.277C812.4 129.277 849.6 112.554 885.6 95.8303C922.8 79.1071 960 62.3838 997.2 70.7455C1034.4 79.1071 1070.4 112.554 1107.6 109.766C1144.8 106.979 1182 67.9583 1218 42.8734C1255.2 17.7886 1292.4 6.63973 1329.6 20.5758C1365.6 34.5118 1402.8 73.5327 1422 93.0431L1440 112.554V146H1422C1402.8 146 1365.6 146 1329.6 146C1292.4 146 1255.2 146 1218 146C1182 146 1144.8 146 1107.6 146C1070.4 146 1034.4 146 997.2 146C960 146 922.8 146 885.6 146C849.6 146 812.4 146 775.2 146C738 146 702 146 664.8 146C627.6 146 590.4 146 554.4 146C517.2 146 480 146 442.8 146C405.6 146 369.6 146 332.4 146C295.2 146 258 146 222 146C184.8 146 147.6 146 110.4 146C74.4 146 37.2 146 18 146H0V45.6606Z" fill="#9DF069"/>
</svg>
