<?xml version="1.0" encoding="UTF-8" standalone="no"?>
<!-- Created with Inkscape (http://www.inkscape.org/) -->

<svg
   width="50mm"
   height="50mm"
   viewBox="0 0 50 50"
   version="1.1"
   id="svg1"
   inkscape:version="1.3.2 (091e20e, 2023-11-25, custom)"
   sodipodi:docname="logo.svg"
   xmlns:inkscape="http://www.inkscape.org/namespaces/inkscape"
   xmlns:sodipodi="http://sodipodi.sourceforge.net/DTD/sodipodi-0.dtd"
   xmlns="http://www.w3.org/2000/svg"
   xmlns:svg="http://www.w3.org/2000/svg">
  <sodipodi:namedview
     id="namedview1"
     pagecolor="#646464"
     bordercolor="#000000"
     borderopacity="0.43529412"
     inkscape:showpageshadow="false"
     inkscape:pageopacity="0.0"
     inkscape:pagecheckerboard="false"
     inkscape:deskcolor="#646464"
     inkscape:document-units="mm"
     borderlayer="true"
     inkscape:zoom="0.52738496"
     inkscape:cx="-965.1394"
     inkscape:cy="-39.819111"
     inkscape:window-width="1440"
     inkscape:window-height="830"
     inkscape:window-x="-6"
     inkscape:window-y="-6"
     inkscape:window-maximized="1"
     inkscape:current-layer="layer1"
     showgrid="true">
    <inkscape:grid
       id="grid1"
       units="mm"
       originx="0"
       originy="0"
       spacingx="0.99999999"
       spacingy="0.99999999"
       empcolor="#0099e5"
       empopacity="0.30196078"
       color="#0099e5"
       opacity="0.14901961"
       empspacing="5"
       dotted="false"
       gridanglex="30"
       gridanglez="30"
       visible="true" />
  </sodipodi:namedview>
  <defs
     id="defs1">
    <rect
       x="-1455.1181"
       y="-82.956481"
       width="81.832839"
       height="139.64939"
       id="rect11" />
    <rect
       x="-1190.5512"
       y="75.590552"
       width="154.43583"
       height="161.72737"
       id="rect1" />
    <rect
       x="-1190.5512"
       y="75.590552"
       width="154.43583"
       height="161.72737"
       id="rect3" />
  </defs>
  <g
     inkscape:label="Capa 1"
     inkscape:groupmode="layer"
     id="layer1">
    <g
       id="g19"
       transform="translate(-56.249866,-44.414343)">
      <path
         id="path1"
         style="fill:#9df069;fill-opacity:1;stroke-width:0.376681"
         d="m 31.249772,44.931624 a 10.666695,10.666695 0 0 0 0.861446,0.06821 10.666695,10.666695 0 0 0 10.666533,-10.666532 10.666695,10.666695 0 0 0 -0.0067,-0.222209 h 0.0067 c 0,0 0.85285,-7.574063 -8.554517,-16.000057 -2.585686,-2.315948 -2.55695,-6.666776 -2.55695,-6.666776 h -0.0052 A 6.6666908,6.6666908 0 0 0 31.249772,9.4996785 Z" />
      <path
         id="path19"
         style="fill:#9df069;fill-opacity:1;stroke-width:0.376681"
         d="M 28.750183,6.2254598 A 6.6666908,6.6666908 0 0 0 26.250077,5.1614421 V 43.200464 a 10.666695,10.666695 0 0 0 2.500106,1.213879 z" />
      <path
         id="path15"
         style="fill:#9df069;fill-opacity:1;stroke-width:0.376681"
         d="m 21.249866,44.414343 a 10.666695,10.666695 0 0 0 2.500106,-1.213879 V 5.1407715 a 6.6666908,6.6666908 0 0 0 -2.500106,1.047998 z" />
      <path
         id="path17"
         style="fill:#9df069;fill-opacity:1;stroke-width:0.376681"
         d="m 18.74976,9.4433512 a 6.6666908,6.6666908 0 0 0 -0.416512,2.2231198 c 0,0 0.02925,4.350827 -2.556433,6.666777 -9.4073666,8.425992 -8.5545168,15.99954 -8.5545168,15.99954 a 10.666695,10.666695 0 0 0 0,5.17e-4 10.666695,10.666695 0 0 0 10.6665328,10.666532 10.666695,10.666695 0 0 0 0.860929,-0.06821 z" />
      <rect
         style="fill:#9df069;fill-opacity:1;stroke-width:0.298802"
         id="rect5"
         width="2.5"
         height="50"
         x="21.250076"
         y="0" />
      <rect
         style="fill:#9df069;fill-opacity:1;stroke-width:0.298802"
         id="rect6"
         width="2.5"
         height="50"
         x="26.250076"
         y="0" />
    </g>
    <path
       id="path6"
       style="fill:#9df069;fill-opacity:1;stroke-width:0.376681"
       d="m -45,12.731282 a 6.6666908,6.6666908 0 0 0 -6.666513,6.666513 c 0,0 0.02896,4.35056 -2.55673,6.666514 -9.407385,8.42601 -8.554433,16 -8.554433,16 a 10.666695,10.666695 0 0 0 0,4.59e-4 10.666695,10.666695 0 0 0 10.666514,10.666514 A 10.666695,10.666695 0 0 0 -45,50 a 10.666695,10.666695 0 0 0 7.111162,2.731282 10.666695,10.666695 0 0 0 10.666514,-10.666514 10.666695,10.666695 0 0 0 -0.0064,-0.222324 h 0.0064 c 0,0 0.852952,-7.57399 -8.554433,-16 -2.585692,-2.315954 -2.556729,-6.666973 -2.556729,-6.666973 h -0.0055 A 6.6666908,6.6666908 0 0 0 -45,12.731282 Z" />
    <rect
       style="fill:#9df069;fill-opacity:1;stroke-width:0.298802"
       id="rect7"
       width="2.5"
       height="50"
       x="-17.5"
       y="10.000001" />
    <rect
       style="fill:#9df069;fill-opacity:1;stroke-width:0.298802"
       id="rect8"
       width="2.5"
       height="50"
       x="-12.5"
       y="10.000001" />
    <g
       id="g24"
       transform="translate(-97.222299,-44.332788)">
      <path
         id="path20"
         style="fill:#9df069;fill-opacity:1;stroke-width:0.376681"
         d="m 28.750183,44.416927 a 10.666695,10.666695 0 0 0 3.361035,0.58291 10.666695,10.666695 0 0 0 10.666533,-10.666532 10.666695,10.666695 0 0 0 -0.0067,-0.222209 h 0.0067 c 0,0 0.852859,-7.574055 -8.554517,-16.000057 -2.585689,-2.315951 -2.55695,-6.666776 -2.55695,-6.666776 h -0.0052 A 6.6666908,6.6666908 0 0 0 28.750183,6.2166748 Z" />
      <path
         id="path22"
         style="fill:#9df069;fill-opacity:1;stroke-width:0.376681"
         d="m 23.749972,43.200464 a 10.666695,10.666695 0 0 0 1.250052,-0.931726 10.666695,10.666695 0 0 0 1.250053,0.931726 V 5.1614421 A 6.6666908,6.6666908 0 0 0 25.000024,5.0002116 6.6666908,6.6666908 0 0 0 23.749972,5.1407715 Z" />
      <path
         id="path24"
         style="fill:#9df069;fill-opacity:1;stroke-width:0.376681"
         d="m 21.249866,6.1991048 a 6.6666908,6.6666908 0 0 0 -2.916618,5.4673662 c 0,0 0.02925,4.350827 -2.556433,6.666777 -9.4073665,8.425992 -8.5545168,15.99954 -8.5545168,15.99954 a 10.666695,10.666695 0 0 0 0,5.17e-4 10.666695,10.666695 0 0 0 10.6665328,10.666532 10.666695,10.666695 0 0 0 3.361035,-0.58291 z" />
    </g>
    <g
       id="g29">
      <path
         id="path28"
         style="fill:#9df069;fill-opacity:1;stroke-width:0.376681"
         d="m -108.47212,-4.9163781 a 10.666695,10.666695 0 0 0 3.36104,0.58291 A 10.666695,10.666695 0 0 0 -94.444548,-15 a 10.666695,10.666695 0 0 0 -0.0067,-0.222209 h 0.0067 c 0,0 0.852859,-7.574055 -8.554522,-16.000057 -2.58568,-2.315951 -2.55695,-6.666776 -2.55695,-6.666776 h -0.005 a 6.6666908,6.6666908 0 0 0 -2.9109,-5.227589 z" />
      <path
         id="path29"
         style="fill:#9df069;fill-opacity:1;stroke-width:0.376681"
         d="m -115.97243,-43.134201 a 6.6666908,6.6666908 0 0 0 -2.91662,5.467367 c 0,0 0.0292,4.350827 -2.55643,6.666777 -9.40737,8.425992 -8.55452,15.99954 -8.55452,15.99954 a 10.666695,10.666695 0 0 0 0,5.17e-4 10.666695,10.666695 0 0 0 10.66653,10.6665319 10.666695,10.666695 0 0 0 3.36104,-0.58291 z" />
      <rect
         style="fill:#9df069;fill-opacity:1;stroke-width:0.298802"
         id="rect29"
         width="2.5"
         height="50"
         x="-113.47227"
         y="-49.333282" />
    </g>
    <g
       id="g36"
       transform="translate(-177.5,-50.000001)">
      <path
         id="path30"
         style="fill:#9df069;fill-opacity:1;stroke-width:0.376681"
         d="m 27.50013,43.894995 a 10.666695,10.666695 0 0 0 4.611088,1.104842 10.666695,10.666695 0 0 0 10.666533,-10.666532 10.666695,10.666695 0 0 0 -0.0067,-0.222209 h 0.0067 c 0,0 0.852859,-7.574055 -8.554517,-16.000057 -2.585689,-2.315951 -2.55695,-6.666776 -2.55695,-6.666776 h -0.0052 A 6.6666908,6.6666908 0 0 0 27.50013,5.5464315 Z" />
      <path
         id="path34"
         style="fill:#9df069;fill-opacity:1;stroke-width:0.376681"
         d="m 22.499919,43.935819 a 10.666695,10.666695 0 0 0 2.500105,-1.667081 V 5.0002116 a 6.6666908,6.6666908 0 0 0 -2.500105,0.5224487 z" />
      <path
         id="path36"
         style="fill:#9df069;fill-opacity:1;stroke-width:0.376681"
         d="m 19.999813,7.2982625 a 6.6666908,6.6666908 0 0 0 -1.666565,4.3682085 c 0,0 0.02925,4.350827 -2.556433,6.666777 -9.4073663,8.425992 -8.5545168,15.99954 -8.5545168,15.99954 a 10.666695,10.666695 0 0 0 0,5.17e-4 10.666695,10.666695 0 0 0 10.6665328,10.666532 10.666695,10.666695 0 0 0 2.110982,-0.241329 z" />
      <rect
         style="fill:#9df069;fill-opacity:1;stroke-width:0.298802"
         id="rect30"
         width="2.5"
         height="50"
         x="22.5"
         y="6.6757201e-07" />
      <rect
         style="fill:#9df069;fill-opacity:1;stroke-width:0.298802"
         id="rect31"
         width="2.5"
         height="50"
         x="27.5"
         y="6.6757201e-07" />
    </g>
    <g
       id="g39"
       transform="translate(-217.11122,-49.999837)">
      <path
         id="path37"
         style="fill:#9df069;fill-opacity:1;stroke-width:0.376681"
         d="m 23.749972,43.200464 a 10.666695,10.666695 0 0 0 1.250052,-0.931726 10.666695,10.666695 0 0 0 7.111194,2.731099 10.666695,10.666695 0 0 0 10.666533,-10.666532 10.666695,10.666695 0 0 0 -0.0067,-0.222209 h 0.0067 c 0,0 0.852859,-7.574055 -8.554517,-16.000057 -2.585689,-2.315951 -2.55695,-6.666776 -2.55695,-6.666776 h -0.0052 a 6.6666908,6.6666908 0 0 0 -6.66106,-6.4440514 6.6666908,6.6666908 0 0 0 -1.250052,0.1405599 z" />
      <path
         id="path39"
         style="fill:#9df069;fill-opacity:1;stroke-width:0.376681"
         d="m 21.249866,6.1991048 a 6.6666908,6.6666908 0 0 0 -2.916618,5.4673662 c 0,0 0.02925,4.350825 -2.556433,6.666777 -9.4073757,8.426001 -8.5545168,15.99954 -8.5545168,15.99954 a 10.666695,10.666695 0 0 0 0,5.17e-4 10.666695,10.666695 0 0 0 10.6665328,10.666532 10.666695,10.666695 0 0 0 3.361035,-0.58291 z" />
      <rect
         style="fill:#9df069;fill-opacity:1;stroke-width:0.298802"
         id="rect37"
         width="2.5"
         height="50"
         x="23.75"
         y="-3.5527137e-15" />
    </g>
    <g
       id="g43"
       transform="translate(-261.25005,-47.268901)">
      <path
         id="path40"
         style="fill:#9df069;fill-opacity:1;stroke-width:0.376681"
         d="M 25,43.200627 A 10.666695,10.666695 0 0 0 26.250052,42.268901 10.666695,10.666695 0 0 0 33.361246,45 10.666695,10.666695 0 0 0 44.027779,34.333468 a 10.666695,10.666695 0 0 0 -0.0067,-0.222209 h 0.0067 c 0,0 0.852859,-7.574055 -8.554517,-16.000057 -2.585689,-2.315951 -2.55695,-6.666776 -2.55695,-6.666776 h -0.0052 A 6.6666908,6.6666908 0 0 0 26.250052,5.0003749 6.6666908,6.6666908 0 0 0 25,5.1409348 Z" />
      <path
         id="path41"
         style="fill:#9df069;fill-opacity:1;stroke-width:0.376681"
         d="m 22.499894,6.1992681 a 6.6666908,6.6666908 0 0 0 -2.916618,5.4673659 c 0,0 0.02925,4.350825 -2.556433,6.666777 -9.4073751,8.426001 -8.5545162,15.99954 -8.5545162,15.99954 a 10.666695,10.666695 0 0 0 0,5.17e-4 A 10.666695,10.666695 0 0 0 19.138859,45 10.666695,10.666695 0 0 0 22.499894,44.41709 Z" />
      <rect
         style="fill:#9df069;fill-opacity:1;stroke-width:0.298802"
         id="rect41"
         width="2.5"
         height="50"
         x="25.000029"
         y="-5" />
      <path
         id="path42"
         style="fill:#9df069;fill-opacity:1;stroke-width:0.264583"
         d="m 36.968042,-4.1736433 c -7.227835,-0.0496 -6.966858,7.1736342 -6.966858,7.1736342 0,0 7.227777,0.049661 6.966858,-7.1736342 z" />
    </g>
    <path
       id="path43"
       style="fill:#9df069;fill-opacity:1;stroke-width:0.264583"
       d="m -21.519522,11.720831 c -7.227835,-0.0496 -6.966858,7.173634 -6.966858,7.173634 0,0 7.227777,0.04966 6.966858,-7.173634 z" />
    <g
       id="g47"
       transform="translate(-335.77761,-51.063418)">
      <path
         id="path45"
         style="fill:#9df069;fill-opacity:1;stroke-width:0.376681"
         d="M 56.638754,48.200627 A 10.666695,10.666695 0 0 0 57.888806,47.268901 10.666695,10.666695 0 0 0 65,50 10.666695,10.666695 0 0 0 75.666533,39.333468 a 10.666695,10.666695 0 0 0 -0.0067,-0.222209 h 0.0067 c 0,0 0.852859,-7.574055 -8.554517,-16.000057 -2.585689,-2.315951 -2.55695,-6.666776 -2.55695,-6.666776 h -0.0052 a 6.6666908,6.6666908 0 0 0 -6.66106,-6.444051 6.6666908,6.6666908 0 0 0 -1.250052,0.14056 z" />
      <path
         id="path46"
         style="fill:#9df069;fill-opacity:1;stroke-width:0.376681"
         d="m 54.138648,11.199269 a 6.6666908,6.6666908 0 0 0 -2.916618,5.467365 c 0,0 0.02925,4.350825 -2.556433,6.666777 -9.407375,8.426001 -8.554516,15.99954 -8.554516,15.99954 a 10.666695,10.666695 0 0 0 0,5.17e-4 A 10.666695,10.666695 0 0 0 50.777613,50 10.666695,10.666695 0 0 0 54.138648,49.41709 Z" />
      <rect
         style="fill:#9df069;fill-opacity:1;stroke-width:0.298802"
         id="rect46"
         width="2.5"
         height="50"
         x="56.638783"
         y="2.5" />
      <path
         id="path47"
         style="fill:#9df069;fill-opacity:1;stroke-width:0.264583"
         d="m 68.606796,0.8263571 c -7.227835,-0.0496 -6.966858,7.1736342 -6.966858,7.1736342 0,0 7.227777,0.049661 6.966858,-7.1736342 z" />
    </g>
    <g
       id="g9">
      <path
         d="m -320.93442,-19.376595 c -1.83116,0 -3.12628,0.494298 -3.88555,1.483114 -0.75926,0.988815 -1.1502,2.493312 -1.17253,4.513936 v 0.548287 c 0,2.128103 0.35768,3.7727651 1.07228,4.9335489 0.73693,1.1392877 2.08783,1.7089396 4.05298,1.7089396 1.07191,0 1.96534,-0.2798126 2.67994,-0.8387085 0.71461,-0.5803919 1.2391,-1.3755891 1.57407,-2.3859009 0.3573,-1.0103121 0.53588,-2.1601591 0.53588,-3.4499191 0,-1.977631 -0.40168,-3.557482 -1.20561,-4.739762 -0.7816,-1.18228 -1.99894,-1.773535 -3.65146,-1.773535 z"
         style="fill:#9df069;stroke-width:0.376681"
         id="path9" />
      <path
         d="m -320.98454,-38.563538 a 6.6666908,6.6666908 0 0 0 -6.66626,6.666777 c 0,0 0.0287,4.350308 -2.55695,6.66626 -9.40738,8.426001 -8.55452,16.0000567 -8.55452,16.0000567 a 10.666695,10.666695 0 0 0 0,5.167e-4 10.666695,10.666695 0 0 0 9.82214,10.5833334 V -21.440552 h 2.41174 l 0.40204,2.353862 h 0.13385 c 0.53595,-0.75236 1.23954,-1.386306 2.11046,-1.90221 0.87092,-0.515904 2.03249,-0.774113 3.48403,-0.774113 2.2108,0 3.98589,0.741964 5.32577,2.225187 1.36221,1.483224 2.04328,3.718624 2.04328,6.706568 0,2.9449513 -0.68107,5.1803515 -2.04328,6.7065672 -1.33988,1.5262158 -3.12623,2.2897828 -5.35936,2.2897828 -1.38455,0 -2.53486,-0.2476657 -3.45044,-0.7420736 -0.89325,-0.4944079 -1.59684,-1.0851465 -2.11046,-1.7730184 h -0.20051 c 0.0223,0.3654319 0.0556,0.8275828 0.10025,1.3864787 0.067,0.5588959 0.10026,1.0426503 0.10026,1.4510742 v 4.7216756 a 10.666695,10.666695 0 0 0 5.00796,-2.5037231 10.666695,10.666695 0 0 0 7.11119,2.7310994 10.666695,10.666695 0 0 0 10.66653,-10.6665324 10.666695,10.666695 0 0 0 -0.006,-0.2222086 h 0.006 c 0,0 0.85286,-7.5740558 -8.55451,-16.0000568 -2.58569,-2.315952 -2.55644,-6.667293 -2.55644,-6.667293 h -0.006 a 6.6666908,6.6666908 0 0 0 -6.66109,-6.444052 z"
         style="fill:#9df069;stroke-width:0.376681"
         id="path5" />
      <path
         d="m -314.1338,-48.562927 c -7.22782,-0.0496 -6.96701,7.173205 -6.96701,7.173205 0,0 7.22793,0.05008 6.96701,-7.173205 z"
         style="fill:#9df069;stroke-width:0.264583"
         id="path4" />
    </g>
    <g
       id="g21">
      <path
         d="m -360.31392,-13.653947 v 6.5835775 c 1.49403,-0.1496326 2.58275,-0.4860432 3.26646,-1.0097575 0.68371,-0.548653 1.02526,-1.2470442 1.02526,-2.094963 0,-0.947673 -0.30383,-1.658332 -0.91157,-2.132169 -0.60774,-0.473837 -1.73419,-0.922729 -3.38015,-1.346688 z"
         style="fill:#9df069;stroke-width:0.376681"
         id="path21" />
      <path
         d="m -362.7453,-24.390243 c -1.36742,0.09976 -2.38019,0.41163 -3.03857,0.935344 -0.63307,0.523714 -0.9493,1.197052 -0.9493,2.020032 0,0.997551 0.27851,1.770585 0.83561,2.319238 0.58242,0.523714 1.63291,0.972606 3.15226,1.346688 z"
         style="fill:#9df069;stroke-width:0.376681"
         id="path18" />
      <path
         d="m -361.426,-38.563538 a 6.6666908,6.6666908 0 0 0 -6.66626,6.666777 c 0,0 0.0287,4.350308 -2.55695,6.66626 -9.40738,8.426001 -8.554,16.0000567 -8.554,16.0000567 a 10.666695,10.666695 0 0 0 0,5.167e-4 10.666695,10.666695 0 0 0 10.66653,10.6665324 10.666695,10.666695 0 0 0 5.79138,-1.74769692 V -4.0028564 c -1.39274,-0.024939 -2.74706,-0.1369034 -4.06383,-0.3364136 -1.31678,-0.224449 -2.3807,-0.523538 -3.19102,-0.8976196 v -3.1801677 c 0.86096,0.3990204 1.96261,0.748216 3.3047,1.0474813 1.3421,0.2992653 2.6587,0.4613364 3.95015,0.4862752 v -7.5561282 c -2.50693,-0.673347 -4.34284,-1.521541 -5.50767,-2.54403 -1.16484,-1.02249 -1.74718,-2.418756 -1.74718,-4.189409 0,-1.845469 0.6459,-3.291841 1.93734,-4.33927 1.31678,-1.047428 3.08913,-1.633855 5.31751,-1.758549 v -3.291789 h 2.43138 v 3.254582 c 1.34209,0.04988 2.55742,0.199681 3.64628,0.449068 1.1142,0.249388 2.12697,0.560745 3.03858,0.934827 l -1.02526,2.768306 c -0.81032,-0.324204 -1.70942,-0.598756 -2.69699,-0.823205 -0.96226,-0.249388 -1.94971,-0.411459 -2.96261,-0.486275 v 7.519437 c 1.67128,0.473837 3.06384,0.985104 4.17804,1.533757 1.11419,0.523714 1.94972,1.184267 2.50682,1.982308 0.58242,0.773102 0.87385,1.783367 0.87385,3.030306 0,1.745714 -0.6583,3.1670329 -1.97508,4.264339 -1.31677,1.0723673 -3.17799,1.7334369 -5.58363,1.9828247 v 3.68659665 a 10.666695,10.666695 0 0 0 5.99911,1.90220945 10.666695,10.666695 0 0 0 10.66654,-10.6665324 10.666695,10.666695 0 0 0 -0.006,-0.2222086 h 0.006 c 0,0 0.85337,-7.5740558 -8.554,-16.0000568 -2.58569,-2.315952 -2.55695,-6.667293 -2.55695,-6.667293 h -0.006 a 6.6666908,6.6666908 0 0 0 -6.66109,-6.444052 z"
         style="fill:#9df069;stroke-width:0.376681"
         id="path13" />
      <path
         d="m -354.57526,-48.562927 c -7.22782,-0.0496 -6.9665,7.173205 -6.9665,7.173205 0,0 7.22742,0.05008 6.9665,-7.173205 z"
         style="fill:#9df069;stroke-width:0.264583"
         id="path12" />
    </g>
    <g
       id="g11"
       transform="translate(-429.22325,-48.111162)">
      <path
         id="path10"
         style="fill:#9df069;fill-opacity:1;stroke-width:0.376681"
         d="m 25,10 a 6.6666908,6.6666908 0 0 0 -6.666513,6.666513 c 0,0 0.02896,4.35056 -2.55673,6.666514 -9.4073849,8.42601 -8.5544329,16 -8.5544329,16 a 10.666695,10.666695 0 0 0 0,4.59e-4 A 10.666695,10.666695 0 0 0 17.888838,50 10.666695,10.666695 0 0 0 25,47.268718 10.666695,10.666695 0 0 0 32.111162,50 10.666695,10.666695 0 0 0 42.777676,39.333486 a 10.666695,10.666695 0 0 0 -0.0064,-0.222324 h 0.0064 c 0,0 0.852952,-7.57399 -8.554433,-16 -2.585692,-2.315954 -2.556729,-6.666973 -2.556729,-6.666973 h -0.0055 A 6.6666908,6.6666908 0 0 0 25,10 Z" />
      <path
         id="path11"
         style="fill:#9df069;fill-opacity:1;stroke-width:0.264583"
         d="M 31.850676,2.5427798e-4 C 24.622841,-0.04934572 24.883818,7.1738883 24.883818,7.1738883 c 0,0 7.227777,0.04966 6.966858,-7.17363402202 z" />
    </g>
    <g
       id="g32"
       transform="translate(386.42574,48.563288)">
      <path
         d="m -360.31392,-13.653947 v 6.5835775 c 1.49403,-0.1496326 2.58275,-0.4860432 3.26646,-1.0097575 0.68371,-0.548653 1.02526,-1.2470442 1.02526,-2.094963 0,-0.947673 -0.30383,-1.658332 -0.91157,-2.132169 -0.60774,-0.473837 -1.73419,-0.922729 -3.38015,-1.346688 z"
         style="fill:#9df069;stroke-width:0.376681"
         id="path26" />
      <path
         d="m -362.7453,-24.390243 c -1.36742,0.09976 -2.38019,0.41163 -3.03857,0.935344 -0.63307,0.523714 -0.9493,1.197052 -0.9493,2.020032 0,0.997551 0.27851,1.770585 0.83561,2.319238 0.58242,0.523714 1.63291,0.972606 3.15226,1.346688 z"
         style="fill:#9df069;stroke-width:0.376681"
         id="path27" />
      <path
         d="m -361.426,-38.563538 a 6.6666908,6.6666908 0 0 0 -6.66626,6.666777 c 0,0 0.0287,4.350308 -2.55695,6.66626 -9.40738,8.426001 -8.554,16.0000567 -8.554,16.0000567 a 10.666695,10.666695 0 0 0 0,5.167e-4 10.666695,10.666695 0 0 0 10.66653,10.6665324 10.666695,10.666695 0 0 0 5.79138,-1.74769692 V -4.0028564 c -1.39274,-0.024939 -2.74706,-0.1369034 -4.06383,-0.3364136 -1.31678,-0.224449 -2.3807,-0.523538 -3.19102,-0.8976196 v -3.1801677 c 0.86096,0.3990204 1.96261,0.748216 3.3047,1.0474813 1.3421,0.2992653 2.6587,0.4613364 3.95015,0.4862752 v -7.5561282 c -2.50693,-0.673347 -4.34284,-1.521541 -5.50767,-2.54403 -1.16484,-1.02249 -1.74718,-2.418756 -1.74718,-4.189409 0,-1.845469 0.6459,-3.291841 1.93734,-4.33927 1.31678,-1.047428 3.08913,-1.633855 5.31751,-1.758549 v -3.291789 h 2.43138 v 3.254582 c 1.34209,0.04988 2.55742,0.199681 3.64628,0.449068 1.1142,0.249388 2.12697,0.560745 3.03858,0.934827 l -1.02526,2.768306 c -0.81032,-0.324204 -1.70942,-0.598756 -2.69699,-0.823205 -0.96226,-0.249388 -1.94971,-0.411459 -2.96261,-0.486275 v 7.519437 c 1.67128,0.473837 3.06384,0.985104 4.17804,1.533757 1.11419,0.523714 1.94972,1.184267 2.50682,1.982308 0.58242,0.773102 0.87385,1.783367 0.87385,3.030306 0,1.745714 -0.6583,3.1670329 -1.97508,4.264339 -1.31677,1.0723673 -3.17799,1.7334369 -5.58363,1.9828247 v 3.68659665 a 10.666695,10.666695 0 0 0 5.99911,1.90220945 10.666695,10.666695 0 0 0 10.66654,-10.6665324 10.666695,10.666695 0 0 0 -0.006,-0.2222086 h 0.006 c 0,0 0.85337,-7.5740558 -8.554,-16.0000568 -2.58569,-2.315952 -2.55695,-6.667293 -2.55695,-6.667293 h -0.006 a 6.6666908,6.6666908 0 0 0 -6.66109,-6.444052 z"
         style="fill:#9df069;stroke-width:0.376681"
         id="path31" />
      <path
         d="m -354.57526,-48.562927 c -7.22782,-0.0496 -6.9665,7.173205 -6.9665,7.173205 0,0 7.22742,0.05008 6.9665,-7.173205 z"
         style="fill:#9df069;stroke-width:0.264583"
         id="path32" />
    </g>
  </g>
</svg>
